<?xml version="1.0" encoding="UTF-8" standalone="no"?>
<svg
   xmlns:dc="http://purl.org/dc/elements/1.1/"
   xmlns:cc="http://creativecommons.org/ns#"
   xmlns:rdf="http://www.w3.org/1999/02/22-rdf-syntax-ns#"
   xmlns:svg="http://www.w3.org/2000/svg"
   xmlns="http://www.w3.org/2000/svg"
   xmlns:sodipodi="http://sodipodi.sourceforge.net/DTD/sodipodi-0.dtd"
   xmlns:inkscape="http://www.inkscape.org/namespaces/inkscape"
   version="1.1"
   id="Слой_1"
   x="0px"
   y="0px"
   width="48px"
   height="48px"
   viewBox="0 0 48 48"
   enable-background="new 0 0 48 48"
   xml:space="preserve"
   inkscape:version="0.91 r13725"
   sodipodi:docname="Add Link-modified.svg"
   inkscape:export-filename="C:\Projects\DotNET\MindMap\MindMate\MindMate.Win7\View\Ribbon\Res\Add Link2-32.png"
   inkscape:export-xdpi="60"
   inkscape:export-ydpi="60"><metadata
     id="metadata4157"><rdf:RDF><cc:Work
         rdf:about=""><dc:format>image/svg+xml</dc:format><dc:type
           rdf:resource="http://purl.org/dc/dcmitype/StillImage" /><dc:title></dc:title></cc:Work></rdf:RDF></metadata><defs
     id="defs4155" /><sodipodi:namedview
     pagecolor="#ffffff"
     bordercolor="#666666"
     borderopacity="1"
     objecttolerance="10"
     gridtolerance="10"
     guidetolerance="10"
     inkscape:pageopacity="0"
     inkscape:pageshadow="2"
     inkscape:window-width="1536"
     inkscape:window-height="801"
     id="namedview4153"
     showgrid="false"
     inkscape:zoom="13.166667"
     inkscape:cx="24"
     inkscape:cy="24"
     inkscape:window-x="1528"
     inkscape:window-y="-8"
     inkscape:window-maximized="1"
     inkscape:current-layer="Слой_1" /><path
     fill="#43A047"
     d="M44,33c0,5.523-4.477,10-10,10s-10-4.477-10-10s4.477-10,10-10S44,27.477,44,33"
     id="path4137"
     style="fill:#568d59;fill-opacity:1" /><g
     id="g4139"><rect
       x="32"
       y="27"
       fill="#FFFFFF"
       width="4"
       height="12"
       id="rect4141" /><rect
       x="28"
       y="31"
       fill="#FFFFFF"
       width="12"
       height="4"
       id="rect4143" /></g><path
     style="fill:#2f76bc;fill-opacity:1"
     inkscape:connector-curvature="0"
     id="path4147"
     d="m 20.786,19.086 c -2.9,-2.899 -2.889,-7.63 0.025,-10.544 l 1.452,-1.451 c 2.914,-2.914 7.644,-2.926 10.544,-0.025 2.878,2.878 2.93,7.521 0.119,10.572 l -1.508,1.511 c -3.11,2.867 -7.754,2.815 -10.632,-0.063 z M 29.979,9.894 C 28.638,8.554 26.446,8.565 25.091,9.919 l -1.452,1.451 c -1.354,1.354 -1.365,3.547 -0.024,4.888 1.354,1.354 3.566,1.357 5.034,0.005 l 1.393,-1.395 c 1.294,-1.408 1.292,-3.619 -0.063,-4.974 z" /><path
     style="fill:#2f76bc;fill-opacity:1"
     inkscape:connector-curvature="0"
     id="path4149"
     d="m 8.058,31.814 c -2.9,-2.9 -2.889,-7.631 0.024,-10.544 l 1.452,-1.452 c 2.914,-2.914 7.644,-2.925 10.544,-0.024 2.877,2.877 2.929,7.521 0.119,10.572 l -1.509,1.511 c -3.109,2.867 -7.752,2.814 -10.63,-0.063 z m 9.192,-9.192 c -1.341,-1.341 -3.533,-1.329 -4.888,0.024 l -1.452,1.452 c -1.354,1.354 -1.365,3.547 -0.024,4.887 1.355,1.355 3.566,1.358 5.033,0.006 l 1.393,-1.395 c 1.296,-1.408 1.293,-3.619 -0.062,-4.974 z" /><path
     fill="#42A5F5"
     d="M14.421,25.449c-0.781-0.78-0.781-2.047,0-2.828l9.192-9.192c0.781-0.781,2.047-0.781,2.829,0  c0.78,0.781,0.78,2.048,0,2.828l-9.192,9.192C16.469,26.23,15.203,26.23,14.421,25.449z"
     id="path4151"
     style="fill:#62a2d5;fill-opacity:1" /></svg>