<svg version="1.1" id="Layer_1" xmlns="http://www.w3.org/2000/svg" xmlns:xlink="http://www.w3.org/1999/xlink" x="0px" y="0px" viewBox="0 0 48 48" enable-background="new 0 0 48 48" xml:space="preserve">
<path fill="#CFD8DC" d="M4,34V14h32v20c0,2.2-1.8,4-4,4H8C5.8,38,4,36.2,4,34"></path>
<path fill="#F44336" d="M36,10v6H4v-6c0-2.2,1.8-4,4-4h24C34.2,6,36,7.8,36,10"></path>
<path fill="#B71C1C" d="M31,10c0,1.7-1.3,3-3,3s-3-1.3-3-3c0-1.7,1.3-3,3-3S31,8.3,31,10 M15,10c0-1.7-1.3-3-3-3s-3,1.3-3,3
	c0,1.7,1.3,3,3,3S15,11.7,15,10"></path>
<path fill="#B0BEC5" d="M28,4c1.1,0,2,0.9,2,2v4c0,1.1-0.9,2-2,2c-1.1,0-2-0.9-2-2V6C26,4.9,26.9,4,28,4 M12,4c-1.1,0-2,0.9-2,2v4
	c0,1.1,0.9,2,2,2c1.1,0,2-0.9,2-2V6C14,4.9,13.1,4,12,4"></path>
<path fill="#90A4AE" d="M28,32h-4v-4h4V32z M22,28h-4v4h4V28z M16,28h-4v4h4V28z M28,22h-4v4h4V22z M22,22h-4v4h4V22z M16,22h-4v4h4
	V22z"></path>
<path fill="#43A047" d="M44,34c0,5.5-4.5,10-10,10c-5.5,0-10-4.5-10-10s4.5-10,10-10C39.5,24,44,28.5,44,34"></path>
<polygon fill="#FFFFFF" points="40,32 36,32 36,28 32,28 32,32 28,32 28,36 32,36 32,40 36,40 36,36 40,36 "></polygon>
</svg>