<svg xmlns="http://www.w3.org/2000/svg" viewBox="0 0 20 20"><path fill="#CFD8DC" d="M0 18V6h20v12c0 1.1-.9 2-2 2H2c-1.1 0-2-.9-2-2"></path><path fill="#F44336" d="M20 4v3H0V4c0-1.1.9-2 2-2h16c1.1 0 2 .8 2 2"></path><path fill="#B71C1C" d="M7 4c0 1.1-.9 2-2 2s-2-.9-2-2 .9-2 2-2 2 .9 2 2m10 0c0-1.1-.9-2-2-2s-2 .9-2 2 .9 2 2 2 2-.9 2-2"></path><path fill="#B0BEC5" d="M6 4c0 .6-.4 1-1 1s-1-.4-1-1V1c0-.6.4-1 1-1s1 .4 1 1v3zm10-3c0-.6-.4-1-1-1s-1 .4-1 1v3c0 .6.4 1 1 1s1-.4 1-1V1z"></path><path fill="#90A4AE" d="M5 11H3V9h2v2zm3-2H6v2h2V9zm3 0H9v2h2V9zm3 0h-2v2h2V9zm3 0h-2v2h2V9zM5 12H3v2h2v-2zm3 0H6v2h2v-2zm3 0H9v2h2v-2zm3 0h-2v2h2v-2zm3 0h-2v2h2v-2zM5 15H3v2h2v-2zm3 0H6v2h2v-2zm3 0H9v2h2v-2zm3 0h-2v2h2v-2zm3 0h-2v2h2v-2z"></path></svg>