<svg version="1.1" id="Слой_1" xmlns="http://www.w3.org/2000/svg" xmlns:xlink="http://www.w3.org/1999/xlink" x="0px" y="0px" width="48px" height="48px" viewBox="0 0 48 48" enable-background="new 0 0 48 48" xml:space="preserve">
<path fill="#DCEDC8" d="M5,39V15h38v24c0,2.209-1.791,4-4,4H9C6.791,43,5,41.209,5,39"></path>
<path fill="#4CAF50" d="M43,11v6H5v-6c0-2.209,1.791-4,4-4h30C41.209,7,43,8.791,43,11"></path>
<g>
	<path fill="#2E7D32" d="M36,11c0,1.657-1.343,3-3,3s-3-1.343-3-3s1.343-3,3-3S36,9.343,36,11"></path>
	<path fill="#2E7D32" d="M18,11c0,1.657-1.343,3-3,3s-3-1.343-3-3s1.343-3,3-3S18,9.343,18,11"></path>
</g>
<g>
	<path fill="#B0BEC5" d="M33,4c-1.104,0-2,0.896-2,2v5c0,1.104,0.896,2,2,2s2-0.896,2-2V6C35,4.896,34.104,4,33,4"></path>
	<path fill="#B0BEC5" d="M15,4c-1.104,0-2,0.896-2,2v5c0,1.104,0.896,2,2,2s2-0.896,2-2V6C17,4.896,16.104,4,15,4"></path>
</g>
<polygon fill="#4CAF50" points="31.74,22.059 22.756,31.055 18.471,26.779 16,29.256 22.76,36 34.215,24.531 "></polygon>
</svg>