<?xml version="1.0" encoding="UTF-8" standalone="no"?>
<svg
   xmlns:dc="http://purl.org/dc/elements/1.1/"
   xmlns:cc="http://creativecommons.org/ns#"
   xmlns:rdf="http://www.w3.org/1999/02/22-rdf-syntax-ns#"
   xmlns:svg="http://www.w3.org/2000/svg"
   xmlns="http://www.w3.org/2000/svg"
   xmlns:sodipodi="http://sodipodi.sourceforge.net/DTD/sodipodi-0.dtd"
   xmlns:inkscape="http://www.inkscape.org/namespaces/inkscape"
   version="1.1"
   id="Layer_1"
   x="0px"
   y="0px"
   viewBox="0 0 48 48"
   enable-background="new 0 0 48 48"
   xml:space="preserve"
   inkscape:version="0.91 r13725"
   sodipodi:docname="Calender Add.svg"
   inkscape:export-filename="C:\Projects\DotNET\MindMap\MindMate\MindMate.Win7\View\Ribbon\Res\Calender Add-32.png"
   inkscape:export-xdpi="60"
   inkscape:export-ydpi="60"><metadata
     id="metadata21"><rdf:RDF><cc:Work
         rdf:about=""><dc:format>image/svg+xml</dc:format><dc:type
           rdf:resource="http://purl.org/dc/dcmitype/StillImage" /></cc:Work></rdf:RDF></metadata><defs
     id="defs19" /><sodipodi:namedview
     pagecolor="#ffffff"
     bordercolor="#666666"
     borderopacity="1"
     objecttolerance="10"
     gridtolerance="10"
     guidetolerance="10"
     inkscape:pageopacity="0"
     inkscape:pageshadow="2"
     inkscape:window-width="1536"
     inkscape:window-height="801"
     id="namedview17"
     showgrid="false"
     inkscape:zoom="4.9166667"
     inkscape:cx="-1.3220339"
     inkscape:cy="24"
     inkscape:window-x="1528"
     inkscape:window-y="-8"
     inkscape:window-maximized="1"
     inkscape:current-layer="Layer_1" /><path
     fill="#CFD8DC"
     d="M4,34V14h32v20c0,2.2-1.8,4-4,4H8C5.8,38,4,36.2,4,34"
     id="path3" /><path
     fill="#F44336"
     d="M36,10v6H4v-6c0-2.2,1.8-4,4-4h24C34.2,6,36,7.8,36,10"
     id="path5" /><path
     fill="#B71C1C"
     d="M31,10c0,1.7-1.3,3-3,3s-3-1.3-3-3c0-1.7,1.3-3,3-3S31,8.3,31,10 M15,10c0-1.7-1.3-3-3-3s-3,1.3-3,3  c0,1.7,1.3,3,3,3S15,11.7,15,10"
     id="path7" /><path
     fill="#B0BEC5"
     d="M28,4c1.1,0,2,0.9,2,2v4c0,1.1-0.9,2-2,2c-1.1,0-2-0.9-2-2V6C26,4.9,26.9,4,28,4 M12,4c-1.1,0-2,0.9-2,2v4  c0,1.1,0.9,2,2,2c1.1,0,2-0.9,2-2V6C14,4.9,13.1,4,12,4"
     id="path9" /><path
     fill="#90A4AE"
     d="M28,32h-4v-4h4V32z M22,28h-4v4h4V28z M16,28h-4v4h4V28z M28,22h-4v4h4V22z M22,22h-4v4h4V22z M16,22h-4v4h4  V22z"
     id="path11" /><path
     fill="#F44336"
     d="M44,34c0,5.5-4.5,10-10,10c-5.5,0-10-4.5-10-10s4.5-10,10-10C39.5,24,44,28.5,44,34"
     id="path13" /><rect
     x="28"
     y="32"
     fill="#FFFFFF"
     width="12"
     height="4"
     id="rect15" /></svg>