<?xml version="1.0" encoding="UTF-8" standalone="no"?>
<svg
   xmlns:dc="http://purl.org/dc/elements/1.1/"
   xmlns:cc="http://creativecommons.org/ns#"
   xmlns:rdf="http://www.w3.org/1999/02/22-rdf-syntax-ns#"
   xmlns:svg="http://www.w3.org/2000/svg"
   xmlns="http://www.w3.org/2000/svg"
   xmlns:sodipodi="http://sodipodi.sourceforge.net/DTD/sodipodi-0.dtd"
   xmlns:inkscape="http://www.inkscape.org/namespaces/inkscape"
   version="1.1"
   id="Слой_1"
   x="0px"
   y="0px"
   width="32"
   height="32"
   viewBox="0 0 32 32"
   enable-background="new 0 0 48 48"
   xml:space="preserve"
   inkscape:version="0.91 r13725"
   sodipodi:docname="Calender Today.svg"
   inkscape:export-filename="C:\Projects\DotNET\MindMap\MindMate\MindMate.Win7\View\Ribbon\Res\Calender Today-32.png"
   inkscape:export-xdpi="90"
   inkscape:export-ydpi="90"><metadata
     id="metadata29"><rdf:RDF><cc:Work
         rdf:about=""><dc:format>image/svg+xml</dc:format><dc:type
           rdf:resource="http://purl.org/dc/dcmitype/StillImage" /><dc:title></dc:title></cc:Work></rdf:RDF></metadata><defs
     id="defs27" /><sodipodi:namedview
     pagecolor="#ffffff"
     bordercolor="#666666"
     borderopacity="1"
     objecttolerance="10"
     gridtolerance="10"
     guidetolerance="10"
     inkscape:pageopacity="0"
     inkscape:pageshadow="2"
     inkscape:window-width="1536"
     inkscape:window-height="801"
     id="namedview25"
     showgrid="false"
     inkscape:zoom="6.9532167"
     inkscape:cx="-3.5227052"
     inkscape:cy="24"
     inkscape:window-x="1528"
     inkscape:window-y="-8"
     inkscape:window-maximized="1"
     inkscape:current-layer="Слой_1" /><g
     id="g4142"
     transform="matrix(0.71236334,0,0,0.71236334,-1.0967202,10.657275)"><path
       style="fill:#cfd8dc"
       inkscape:connector-curvature="0"
       id="path3"
       d="m 5,23 0,-24 38,0 0,24 c 0,2.209 -1.791,4 -4,4 L 9,27 C 6.791,27 5,25.209 5,23" /><path
       style="fill:#f44336"
       inkscape:connector-curvature="0"
       id="path5"
       d="M 43,-5 43,1 5,1 5,-5 c 0,-2.209 1.791,-4 4,-4 l 30,0 c 2.209,0 4,1.791 4,4" /><g
       transform="translate(0,-16)"
       id="g7"><path
         style="fill:#b71c1c"
         inkscape:connector-curvature="0"
         id="path9"
         d="m 36,11 c 0,1.657 -1.343,3 -3,3 -1.657,0 -3,-1.343 -3,-3 0,-1.657 1.343,-3 3,-3 1.657,0 3,1.343 3,3" /><path
         style="fill:#b71c1c"
         inkscape:connector-curvature="0"
         id="path11"
         d="m 18,11 c 0,1.657 -1.343,3 -3,3 -1.657,0 -3,-1.343 -3,-3 0,-1.657 1.343,-3 3,-3 1.657,0 3,1.343 3,3" /></g><g
       transform="translate(0,-16)"
       id="g13"><path
         style="fill:#b0bec5"
         inkscape:connector-curvature="0"
         id="path15"
         d="m 33,4 c -1.104,0 -2,0.896 -2,2 l 0,5 c 0,1.104 0.896,2 2,2 1.104,0 2,-0.896 2,-2 L 35,6 C 35,4.896 34.104,4 33,4" /><path
         style="fill:#b0bec5"
         inkscape:connector-curvature="0"
         id="path17"
         d="m 15,4 c -1.104,0 -2,0.896 -2,2 l 0,5 c 0,1.104 0.896,2 2,2 1.104,0 2,-0.896 2,-2 L 17,6 C 17,4.896 16.104,4 15,4" /></g><text
       sodipodi:linespacing="125%"
       id="text4157"
       y="20"
       x="18.138184"
       style="font-style:normal;font-variant:normal;font-weight:100;font-stretch:normal;font-size:40px;line-height:125%;font-family:'AR JULIAN';-inkscape-font-specification:'AR JULIAN Thin';letter-spacing:0px;word-spacing:0px;fill:#f44336;fill-opacity:1;stroke:none;stroke-width:1px;stroke-linecap:butt;stroke-linejoin:miter;stroke-opacity:1"
       xml:space="preserve"><tspan
         style="font-style:normal;font-variant:normal;font-weight:100;font-stretch:normal;font-size:20px;font-family:'AR JULIAN';-inkscape-font-specification:'AR JULIAN Thin';fill:#f44336;fill-opacity:1"
         y="20"
         x="18.138184"
         id="tspan4159"
         sodipodi:role="line">T</tspan></text>
</g></svg>