<?xml version="1.0" encoding="UTF-8" standalone="no"?>
<svg
   xmlns:dc="http://purl.org/dc/elements/1.1/"
   xmlns:cc="http://creativecommons.org/ns#"
   xmlns:rdf="http://www.w3.org/1999/02/22-rdf-syntax-ns#"
   xmlns:svg="http://www.w3.org/2000/svg"
   xmlns="http://www.w3.org/2000/svg"
   xmlns:sodipodi="http://sodipodi.sourceforge.net/DTD/sodipodi-0.dtd"
   xmlns:inkscape="http://www.inkscape.org/namespaces/inkscape"
   version="1.1"
   id="Слой_1"
   x="0px"
   y="0px"
   width="32"
   height="32"
   viewBox="0 0 32 32"
   enable-background="new 0 0 48 48"
   xml:space="preserve"
   inkscape:version="0.91 r13725"
   sodipodi:docname="Calender Next Month.svg"
   inkscape:export-filename="C:\Projects\DotNET\MindMap\MindMate\MindMate.Win7\View\Ribbon\Res\Calender Next Month-32.png"
   inkscape:export-xdpi="90"
   inkscape:export-ydpi="90"><metadata
     id="metadata29"><rdf:RDF><cc:Work
         rdf:about=""><dc:format>image/svg+xml</dc:format><dc:type
           rdf:resource="http://purl.org/dc/dcmitype/StillImage" /><dc:title></dc:title></cc:Work></rdf:RDF></metadata><defs
     id="defs27" /><sodipodi:namedview
     pagecolor="#ffffff"
     bordercolor="#666666"
     borderopacity="1"
     objecttolerance="10"
     gridtolerance="10"
     guidetolerance="10"
     inkscape:pageopacity="0"
     inkscape:pageshadow="2"
     inkscape:window-width="1536"
     inkscape:window-height="801"
     id="namedview25"
     showgrid="false"
     inkscape:zoom="6.9532167"
     inkscape:cx="-3.5227052"
     inkscape:cy="24"
     inkscape:window-x="1528"
     inkscape:window-y="-8"
     inkscape:window-maximized="1"
     inkscape:current-layer="Слой_1" /><path
     d="m 2.4650965,27.041632 0,-17.0967203 27.0698065,0 0,17.0967203 c 0,1.57361 -1.275842,2.849453 -2.849453,2.849453 l -21.3709001,0 c -1.5736107,0 -2.8494534,-1.275843 -2.8494534,-2.849453"
     id="path3"
     inkscape:connector-curvature="0"
     style="fill:#cfd8dc" /><path
     d="m 29.534903,7.0954583 0,4.2741797 -27.0698065,0 0,-4.2741797 c 0,-1.5736106 1.2758427,-2.8494534 2.8494534,-2.8494534 l 21.3709001,0 c 1.573611,0 2.849453,1.2758428 2.849453,2.8494534"
     id="path5"
     inkscape:connector-curvature="0"
     style="fill:#f44336" /><g
     id="g7"
     transform="matrix(0.71236334,0,0,0.71236334,-1.0967202,-0.74053844)"><path
       d="m 36,11 c 0,1.657 -1.343,3 -3,3 -1.657,0 -3,-1.343 -3,-3 0,-1.657 1.343,-3 3,-3 1.657,0 3,1.343 3,3"
       id="path9"
       inkscape:connector-curvature="0"
       style="fill:#b71c1c" /><path
       d="m 18,11 c 0,1.657 -1.343,3 -3,3 -1.657,0 -3,-1.343 -3,-3 0,-1.657 1.343,-3 3,-3 1.657,0 3,1.343 3,3"
       id="path11"
       inkscape:connector-curvature="0"
       style="fill:#b71c1c" /></g><g
     id="g13"
     transform="matrix(0.71236334,0,0,0.71236334,-1.0967202,-0.74053844)"><path
       d="m 33,4 c -1.104,0 -2,0.896 -2,2 l 0,5 c 0,1.104 0.896,2 2,2 1.104,0 2,-0.896 2,-2 L 35,6 C 35,4.896 34.104,4 33,4"
       id="path15"
       inkscape:connector-curvature="0"
       style="fill:#b0bec5" /><path
       d="m 15,4 c -1.104,0 -2,0.896 -2,2 l 0,5 c 0,1.104 0.896,2 2,2 1.104,0 2,-0.896 2,-2 L 17,6 C 17,4.896 16.104,4 15,4"
       id="path17"
       inkscape:connector-curvature="0"
       style="fill:#b0bec5" /></g><text
     xml:space="preserve"
     style="font-style:normal;font-variant:normal;font-weight:100;font-stretch:normal;font-size:28.49453354px;line-height:125%;font-family:'AR JULIAN';-inkscape-font-specification:'AR JULIAN Thin';letter-spacing:0px;word-spacing:0px;fill:#f44336;fill-opacity:1;stroke:none;stroke-width:1px;stroke-linecap:butt;stroke-linejoin:miter;stroke-opacity:1"
     x="8.2015696"
     y="24.904541"
     id="text4157"
     sodipodi:linespacing="125%"><tspan
       sodipodi:role="line"
       id="tspan4159"
       x="8.2015696"
       y="24.904541"
       style="font-style:normal;font-variant:normal;font-weight:100;font-stretch:normal;font-size:14.24726677px;font-family:'AR JULIAN';-inkscape-font-specification:'AR JULIAN Thin';fill:#f44336;fill-opacity:1">+m</tspan></text>
</svg>