<?xml version="1.0" encoding="UTF-8" standalone="no"?>
<svg
   xmlns:dc="http://purl.org/dc/elements/1.1/"
   xmlns:cc="http://creativecommons.org/ns#"
   xmlns:rdf="http://www.w3.org/1999/02/22-rdf-syntax-ns#"
   xmlns:svg="http://www.w3.org/2000/svg"
   xmlns="http://www.w3.org/2000/svg"
   xmlns:sodipodi="http://sodipodi.sourceforge.net/DTD/sodipodi-0.dtd"
   xmlns:inkscape="http://www.inkscape.org/namespaces/inkscape"
   height="16"
   width="16"
   viewBox="0 0 16 16"
   id="svg2"
   version="1.1"
   inkscape:version="0.91 r13725"
   sodipodi:docname="Clear All Formating.svg"
   inkscape:export-filename="C:\Projects\DotNET\MindMap\MindMate\MindMate.Win7\View\Ribbon\Res\clear_formatting.png"
   inkscape:export-xdpi="90"
   inkscape:export-ydpi="90">
  <metadata
     id="metadata13">
    <rdf:RDF>
      <cc:Work
         rdf:about="">
        <dc:format>image/svg+xml</dc:format>
        <dc:type
           rdf:resource="http://purl.org/dc/dcmitype/StillImage" />
        <dc:title></dc:title>
      </cc:Work>
    </rdf:RDF>
  </metadata>
  <defs
     id="defs11" />
  <sodipodi:namedview
     pagecolor="#ffffff"
     bordercolor="#666666"
     borderopacity="1"
     objecttolerance="10"
     gridtolerance="10"
     guidetolerance="10"
     inkscape:pageopacity="0"
     inkscape:pageshadow="2"
     inkscape:window-width="1536"
     inkscape:window-height="801"
     id="namedview9"
     showgrid="false"
     inkscape:zoom="14.75"
     inkscape:cx="-0.44067797"
     inkscape:cy="8"
     inkscape:window-x="1528"
     inkscape:window-y="-8"
     inkscape:window-maximized="1"
     inkscape:current-layer="svg2" />
  <path
     style="fill:#5fa8d2;fill-opacity:0.38785046"
     inkscape:connector-curvature="0"
     d="m 4.6463048,10.926995 c 0.1468128,6.2e-5 0.293563,0.05606 0.4055632,0.16806 l 3.1290062,3.128966 c 0.2245002,0.224497 0.2245002,0.587993 0,0.811991 l -0.7960019,0.795991 c -0.2240002,0.223997 -0.5875009,0.223997 -0.8115015,0 L 3.4428649,12.701538 c -0.2245004,-0.223998 -0.2240002,-0.587994 5e-4,-0.811992 l 0.7970017,-0.794991 c 0.1122501,-0.111748 0.2591254,-0.167623 0.4059382,-0.16756 z"
     id="path1" />
  <path
     style="fill:#56789f;fill-opacity:1"
     inkscape:connector-curvature="0"
     d="m 11.535285,4.0390135 c 0.147129,-1e-7 0.294258,0.056131 0.406508,0.1683922 l 3.127583,3.1275782 c 0.224509,0.2244926 0.224509,0.5885149 0,0.8130075 L 9.5387321,13.678612 c -0.2245012,0.224522 -0.5885164,0.224522 -0.8135205,0 L 5.596133,10.549539 c -0.2245083,-0.224981 -0.2245083,-0.5890035 0,-0.8134962 l 5.532644,-5.5286371 c 0.11225,-0.1122615 0.259379,-0.1683923 0.406508,-0.1683922 z"
     id="path2" />
  <path
     style="fill:#000000"
     inkscape:connector-curvature="0"
     d="m 5.2267444,2.1089992 -1.2210003,3.3544986 2.4665011,0 z M 4.2832439,0 6.2132451,0 8.3572458,5.3539982 6.7237449,6.9859977 l -3.2790013,0 -0.7465003,2.0539992 -1.93600101,0 z"
     id="path3" />
</svg>
