<?xml version="1.0" encoding="UTF-8" standalone="no"?>
<svg
   xmlns:dc="http://purl.org/dc/elements/1.1/"
   xmlns:cc="http://creativecommons.org/ns#"
   xmlns:rdf="http://www.w3.org/1999/02/22-rdf-syntax-ns#"
   xmlns:svg="http://www.w3.org/2000/svg"
   xmlns="http://www.w3.org/2000/svg"
   xmlns:sodipodi="http://sodipodi.sourceforge.net/DTD/sodipodi-0.dtd"
   xmlns:inkscape="http://www.inkscape.org/namespaces/inkscape"
   version="1.1"
   id="Слой_1"
   x="0px"
   y="0px"
   width="48px"
   height="48px"
   viewBox="0 0 48 48"
   enable-background="new 0 0 48 48"
   xml:space="preserve"
   inkscape:version="0.91 r13725"
   sodipodi:docname="Delete Link.svg"
   inkscape:export-filename="C:\Projects\DotNET\MindMap\MindMate\MindMate.Win7\View\Ribbon\Res\Delete Link-32.png"
   inkscape:export-xdpi="60"
   inkscape:export-ydpi="60"><metadata
     id="metadata23"><rdf:RDF><cc:Work
         rdf:about=""><dc:format>image/svg+xml</dc:format><dc:type
           rdf:resource="http://purl.org/dc/dcmitype/StillImage" /><dc:title></dc:title></cc:Work></rdf:RDF></metadata><defs
     id="defs21" /><sodipodi:namedview
     pagecolor="#ffffff"
     bordercolor="#666666"
     borderopacity="1"
     objecttolerance="10"
     gridtolerance="10"
     guidetolerance="10"
     inkscape:pageopacity="0"
     inkscape:pageshadow="2"
     inkscape:window-width="1536"
     inkscape:window-height="801"
     id="namedview19"
     showgrid="false"
     inkscape:zoom="9.21"
     inkscape:cx="19.188687"
     inkscape:cy="24"
     inkscape:window-x="1528"
     inkscape:window-y="-8"
     inkscape:window-maximized="1"
     inkscape:current-layer="Слой_1" /><path
     fill="#F44336"
     d="M43,33c0,5.523-4.477,10-10,10s-10-4.477-10-10s4.477-10,10-10S43,27.477,43,33"
     id="path3"
     style="fill:#cc4a3f;fill-opacity:1" /><g
     id="g5"><rect
       x="31.5"
       y="27"
       transform="matrix(-0.7071 0.7071 -0.7071 -0.7071 79.6691 33)"
       fill="#FFFFFF"
       width="3"
       height="12"
       id="rect7" /><rect
       x="31.501"
       y="27"
       transform="matrix(-0.7071 -0.7071 0.7071 -0.7071 33.0008 79.6694)"
       fill="#FFFFFF"
       width="3"
       height="11.999"
       id="rect9" /></g><path
     style="fill:#2f76bc;fill-opacity:1"
     inkscape:connector-curvature="0"
     id="path13"
     d="m 19.896,19.086 c -2.9,-2.899 -2.889,-7.63 0.025,-10.544 l 1.452,-1.451 c 2.914,-2.914 7.644,-2.926 10.544,-0.025 2.878,2.878 2.929,7.521 0.119,10.572 l -1.509,1.511 c -3.109,2.867 -7.754,2.815 -10.631,-0.063 z m 9.192,-9.192 c -1.34,-1.34 -3.533,-1.329 -4.887,0.025 l -1.452,1.451 c -1.354,1.354 -1.365,3.547 -0.024,4.888 1.354,1.354 3.566,1.357 5.033,0.005 l 1.393,-1.395 c 1.294,-1.408 1.292,-3.619 -0.063,-4.974 z" /><path
     style="fill:#2f76bc;fill-opacity:1"
     inkscape:connector-curvature="0"
     id="path15"
     d="m 7.168,31.814 c -2.9,-2.9 -2.889,-7.631 0.024,-10.544 l 1.452,-1.452 c 2.914,-2.914 7.644,-2.925 10.544,-0.024 2.877,2.877 2.929,7.521 0.119,10.572 l -1.509,1.511 c -3.11,2.867 -7.753,2.814 -10.63,-0.063 z m 9.192,-9.192 c -1.341,-1.341 -3.533,-1.329 -4.888,0.024 l -1.452,1.452 c -1.354,1.354 -1.365,3.547 -0.024,4.887 1.355,1.355 3.566,1.358 5.033,0.006 l 1.393,-1.395 c 1.296,-1.408 1.293,-3.619 -0.062,-4.974 z" /><path
     fill="#42A5F5"
     d="M13.531,25.449c-0.781-0.78-0.781-2.047,0-2.828l9.192-9.192c0.781-0.781,2.047-0.781,2.829,0  c0.78,0.781,0.78,2.048,0,2.828l-9.193,9.192C15.579,26.23,14.313,26.23,13.531,25.449z"
     id="path17"
     style="fill:#62a2d5;fill-opacity:1" /></svg>