<?xml version="1.0" encoding="UTF-8" standalone="no"?>
<!-- Created with Inkscape (http://www.inkscape.org/) -->

<svg
   xmlns:dc="http://purl.org/dc/elements/1.1/"
   xmlns:cc="http://creativecommons.org/ns#"
   xmlns:rdf="http://www.w3.org/1999/02/22-rdf-syntax-ns#"
   xmlns:svg="http://www.w3.org/2000/svg"
   xmlns="http://www.w3.org/2000/svg"
   xmlns:sodipodi="http://sodipodi.sourceforge.net/DTD/sodipodi-0.dtd"
   xmlns:inkscape="http://www.inkscape.org/namespaces/inkscape"
   width="138.7825mm"
   height="137.01917mm"
   viewBox="0 0 491.74902 485.50098"
   id="svg9752"
   version="1.1"
   inkscape:version="0.91 r13725"
   inkscape:export-filename="C:\Projects\DotNET\MindMap\MindMate\MindMate.Win7\View\Ribbon\Res\rect4136.png"
   inkscape:export-xdpi="6.3499999"
   inkscape:export-ydpi="6.3499999"
   sodipodi:docname="ExpandAll-SUA.svg">
  <defs
     id="defs9754" />
  <sodipodi:namedview
     id="base"
     pagecolor="#ffffff"
     bordercolor="#666666"
     borderopacity="1.0"
     inkscape:pageopacity="0.0"
     inkscape:pageshadow="2"
     inkscape:zoom="1"
     inkscape:cx="179.99804"
     inkscape:cy="250.69047"
     inkscape:document-units="px"
     inkscape:current-layer="layer1"
     showgrid="false"
     fit-margin-top="0"
     fit-margin-left="0"
     fit-margin-right="0"
     fit-margin-bottom="0"
     inkscape:window-width="1536"
     inkscape:window-height="801"
     inkscape:window-x="1528"
     inkscape:window-y="-8"
     inkscape:window-maximized="1" />
  <metadata
     id="metadata9757">
    <rdf:RDF>
      <cc:Work
         rdf:about="">
        <dc:format>image/svg+xml</dc:format>
        <dc:type
           rdf:resource="http://purl.org/dc/dcmitype/StillImage" />
        <dc:title />
      </cc:Work>
    </rdf:RDF>
  </metadata>
  <g
     inkscape:label="Layer 1"
     inkscape:groupmode="layer"
     id="layer1"
     transform="translate(-112.00097,-95.61132)">
    <path
       style="fill:#7dacff;fill-opacity:1;stroke:#416dff;stroke-width:7.08400011;stroke-linecap:butt;stroke-linejoin:miter;stroke-miterlimit:4;stroke-dasharray:none;stroke-opacity:1"
       d="m 600.208,99.65332 -1,0 0,-0.5 -413.916,0 0,32.91796 381.99999,0 0,381.5 32.91601,0 0,-413.91796 z"
       id="rect10330"
       inkscape:connector-curvature="0" />
    <path
       style="fill:#7dacff;fill-opacity:1;stroke:#416dff;stroke-width:6.6302228;stroke-linecap:butt;stroke-linejoin:miter;stroke-miterlimit:4;stroke-dasharray:none;stroke-opacity:1"
       d="m 115.31608,189.92545 0,387.40378 0.93594,0 0,0.46797 357.52854,0 29.87158,0 0.93594,0 0,-387.40378 -0.93594,0 0,-0.46797 -357.52854,0 -29.87158,0 -0.93594,0 z m 30.80752,30.80936 327.65696,0 0,326.25303 -327.65696,0 0,-326.25303 z"
       id="rect10330-0"
       inkscape:connector-curvature="0" />
    <path
       style="fill:#7dacff;fill-opacity:1;stroke:#416dff;stroke-width:8.61596966;stroke-linecap:butt;stroke-linejoin:miter;stroke-miterlimit:4;stroke-dasharray:none;stroke-opacity:1"
       d="m 296.83599,267.1284 0,101.75322 -102.57051,0 0,24.14372 102.57051,0 0,102.57051 24.14531,0 0,-102.57051 101.75322,0 0,-24.14372 -101.75322,0 0,-101.75322 -24.14531,0 z"
       id="rect10397"
       inkscape:connector-curvature="0" />
  </g>
</svg>
