<?xml version="1.0" encoding="UTF-8" standalone="no"?>
<svg
   xmlns:dc="http://purl.org/dc/elements/1.1/"
   xmlns:cc="http://creativecommons.org/ns#"
   xmlns:rdf="http://www.w3.org/1999/02/22-rdf-syntax-ns#"
   xmlns:svg="http://www.w3.org/2000/svg"
   xmlns="http://www.w3.org/2000/svg"
   xmlns:sodipodi="http://sodipodi.sourceforge.net/DTD/sodipodi-0.dtd"
   xmlns:inkscape="http://www.inkscape.org/namespaces/inkscape"
   version="1.0"
   id="Layer_1"
   x="0px"
   y="0px"
   viewBox="0 0 32 32"
   enable-background="new 0 0 48 48"
   xml:space="preserve"
   inkscape:version="0.91 r13725"
   sodipodi:docname="folder2.svg"
   width="32"
   height="32"
   inkscape:export-filename="C:\Projects\DotNET\MindMap\MindMate\MindMate.Win7\View\Ribbon\Res\Folder2-32.png"
   inkscape:export-xdpi="90"
   inkscape:export-ydpi="90"><metadata
     id="metadata8081"><rdf:RDF><cc:Work
         rdf:about=""><dc:format>image/svg+xml</dc:format><dc:type
           rdf:resource="http://purl.org/dc/dcmitype/StillImage" /><dc:title /></cc:Work></rdf:RDF></metadata><defs
     id="defs8079" /><sodipodi:namedview
     pagecolor="#ffffff"
     bordercolor="#666666"
     borderopacity="1"
     objecttolerance="10"
     gridtolerance="10"
     guidetolerance="10"
     inkscape:pageopacity="0"
     inkscape:pageshadow="2"
     inkscape:window-width="1536"
     inkscape:window-height="801"
     id="namedview8077"
     showgrid="false"
     inkscape:zoom="13.166667"
     inkscape:cx="14.050633"
     inkscape:cy="22.511392"
     inkscape:window-x="1528"
     inkscape:window-y="-8"
     inkscape:window-maximized="1"
     inkscape:current-layer="Layer_1" /><g
     id="g8069"
     transform="matrix(0.68427844,0,0,0.68427844,-0.63584789,-0.79144004)"
     style="fill:#cf9230;fill-opacity:1"><path
       d="M 40,12 22,12 18,8 8,8 C 5.8,8 4,9.8 4,12 l 0,8 40,0 0,-4 c 0,-2.2 -1.8,-4 -4,-4 z"
       id="path8071"
       inkscape:connector-curvature="0"
       style="fill:#cf9230;fill-opacity:1" /></g><g
     id="g8073"
     style="fill:#e4bd43;fill-opacity:1"
     transform="matrix(0.68427844,0,0,0.68427844,-0.63584789,-0.79144004)"><path
       d="M 40,12 8,12 c -2.2,0 -4,1.8 -4,4 l 0,20 c 0,2.2 1.8,4 4,4 l 32,0 c 2.2,0 4,-1.8 4,-4 l 0,-20 c 0,-2.2 -1.8,-4 -4,-4 z"
       id="path8075"
       style="fill:#e4bd43;fill-opacity:1"
       inkscape:connector-curvature="0" /></g><path
     inkscape:connector-curvature="0"
     style="fill:#2f76bc;fill-opacity:1"
     d="m 24.73657,24.282259 c -1.505412,-1.505413 -1.505412,-3.968815 0,-5.474228 l 0.752707,-0.752706 c 1.505412,-1.505412 3.968815,-1.505412 5.474227,0 1.505413,1.505413 1.505413,3.900387 0.06843,5.474228 l -0.752706,0.752706 c -1.642269,1.505413 -4.037243,1.505413 -5.542656,0 z m 4.789949,-4.721521 c -0.684278,-0.684279 -1.847551,-0.684279 -2.53183,0 l -0.752706,0.752706 c -0.684279,0.684279 -0.684279,1.847552 0,2.53183 0.684278,0.684279 1.847552,0.684279 2.600258,0 l 0.752706,-0.752706 c 0.615851,-0.684278 0.615851,-1.847552 -0.06843,-2.53183 z M 18.167497,30.851332 c -1.505412,-1.505413 -1.505412,-3.968815 0,-5.474227 l 0.752707,-0.752707 c 1.505412,-1.505412 3.968815,-1.505412 5.474227,0 1.505413,1.505413 1.505413,3.900387 0.06843,5.474228 l -0.752706,0.752706 c -1.642269,1.57384 -4.037243,1.505413 -5.542656,0 z m 4.789949,-4.721521 c -0.684278,-0.684279 -1.847551,-0.684279 -2.53183,0 l -0.752706,0.752706 c -0.684279,0.684279 -0.684279,1.847552 0,2.53183 0.684278,0.684279 1.847552,0.684279 2.600258,0 l 0.752706,-0.752706 c 0.615851,-0.684278 0.615851,-1.847552 -0.06843,-2.53183 z"
     id="path8085" /><path
     inkscape:connector-curvature="0"
     style="fill:#62a2d5;fill-opacity:1"
     d="m 21.452034,27.566796 c -0.410567,-0.410568 -0.410567,-1.026418 0,-1.436985 l 4.721521,-4.721521 c 0.410567,-0.410567 1.026418,-0.410567 1.436985,0 0.410567,0.410567 0.410567,1.026417 0,1.436984 l -4.721521,4.721522 c -0.34214,0.410567 -1.026418,0.410567 -1.436985,0 z"
     id="path8087" /></svg>