<svg xmlns="http://www.w3.org/2000/svg" id="Layer_1" style="enable-background:new 0 0 30 30;" viewBox="0 0 30 30" x="0px" y="0px" version="1.1" xmlns:xml="http://www.w3.org/XML/1998/namespace" xml:space="preserve" xmlns:xlink="http://www.w3.org/1999/xlink">
<g>
	<rect style="fill:#FFFFFF;" x="1.5" y="3.5" width="27" height="23" />
	<g>
		<path style="fill:#788B9C;" d="M 28 4 v 22 H 2 V 4 H 28 M 29 3 H 1 v 24 h 28 V 3 L 29 3 Z" />
	</g>
</g>
<rect style="fill:#B5DEFF;" x="5" y="7" width="20" height="13" />
<rect style="fill:#D9F6FF;" x="5" y="14" width="20" height="5.714" />
<rect style="fill:#7AADF0;" x="5" y="20" width="20" height="3" />
<ellipse style="fill:#D9F6FF;" cx="11.25" cy="14" rx="2.5" ry="2.286" />
<ellipse style="fill:#D9F6FF;" cx="8.75" cy="14" rx="1.875" ry="1.714" />
<ellipse style="fill:#D9F6FF;" cx="15" cy="15.143" rx="2.5" ry="2.286" />
<ellipse style="fill:#D9F6FF;" cx="18.75" cy="14" rx="2.5" ry="2.286" />
<ellipse style="fill:#D9F6FF;" cx="23.75" cy="14" rx="1.25" ry="1.143" />
<ellipse style="fill:#D9F6FF;" cx="6.25" cy="14" rx="1.25" ry="1.143" />
<ellipse style="fill:#D9F6FF;" cx="21.25" cy="14" rx="1.875" ry="1.714" />
<polygon style="fill:#4A6D9C;" points="5,20 25,20 25,19 18.75,15" />
<polygon style="fill:#5D84B8;" points="20,20 5,20 5,17 11.25,14" />
</svg>