<svg xmlns="http://www.w3.org/2000/svg" viewBox="0 0 22 22"><path fill="#1976D2" d="M11.3 10.7c-2.2-2.2-2.2-5.8 0-8l1.1-1.1c2.2-2.2 5.8-2.2 8 0s2.2 5.7.1 8l-1.1 1.1c-2.4 2.2-5.9 2.2-8.1 0zm7-6.9c-1-1-2.7-1-3.7 0l-1.1 1.1c-1 1-1 2.7 0 3.7s2.7 1 3.8 0l1.1-1.1c.9-1 .9-2.7-.1-3.7zM1.7 20.3c-2.2-2.2-2.2-5.8 0-8l1.1-1.1c2.2-2.2 5.8-2.2 8 0s2.2 5.7.1 8l-1.1 1.1c-2.4 2.3-5.9 2.2-8.1 0zm7-6.9c-1-1-2.7-1-3.7 0l-1.1 1.1c-1 1-1 2.7 0 3.7s2.7 1 3.8 0l1.1-1.1c.9-1 .9-2.7-.1-3.7z"></path><path fill="#42A5F5" d="M6.5 15.5c-.6-.6-.6-1.5 0-2.1l6.9-6.9c.6-.6 1.5-.6 2.1 0 .6.6.6 1.5 0 2.1l-6.9 6.9c-.5.6-1.5.6-2.1 0z"></path></svg>