<?xml version="1.0" encoding="UTF-8" standalone="no"?>
<svg
   xmlns:dc="http://purl.org/dc/elements/1.1/"
   xmlns:cc="http://creativecommons.org/ns#"
   xmlns:rdf="http://www.w3.org/1999/02/22-rdf-syntax-ns#"
   xmlns:svg="http://www.w3.org/2000/svg"
   xmlns="http://www.w3.org/2000/svg"
   xmlns:sodipodi="http://sodipodi.sourceforge.net/DTD/sodipodi-0.dtd"
   xmlns:inkscape="http://www.inkscape.org/namespaces/inkscape"
   viewBox="0 0 48 48"
   id="svg4136"
   version="1.1"
   inkscape:version="0.91 r13725"
   sodipodi:docname="link.svg"
   width="48"
   height="48"
   inkscape:export-filename="C:\Projects\DotNET\MindMap\MindMate\MindMate.Win7\View\Ribbon\Res\link.png"
   inkscape:export-xdpi="90"
   inkscape:export-ydpi="90">
  <metadata
     id="metadata4146">
    <rdf:RDF>
      <cc:Work
         rdf:about="">
        <dc:format>image/svg+xml</dc:format>
        <dc:type
           rdf:resource="http://purl.org/dc/dcmitype/StillImage" />
        <dc:title></dc:title>
      </cc:Work>
    </rdf:RDF>
  </metadata>
  <defs
     id="defs4144" />
  <sodipodi:namedview
     pagecolor="#ffffff"
     bordercolor="#666666"
     borderopacity="1"
     objecttolerance="10"
     gridtolerance="10"
     guidetolerance="10"
     inkscape:pageopacity="0"
     inkscape:pageshadow="2"
     inkscape:window-width="1536"
     inkscape:window-height="801"
     id="namedview4142"
     showgrid="false"
     inkscape:zoom="10.727273"
     inkscape:cx="-0.6059322"
     inkscape:cy="31.048336"
     inkscape:window-x="1528"
     inkscape:window-y="-8"
     inkscape:window-maximized="1"
     inkscape:current-layer="svg4136" />
  <g
     id="g4688"
     transform="matrix(1.6691047,0,0,1.6691047,5.5457792,-10.999213)">
    <path
       style="fill:#1976d2"
       inkscape:connector-curvature="0"
       id="path4138"
       d="m 11.3,20.7 c -2.2,-2.2 -2.2,-5.8 0,-8 l 1.1,-1.1 c 2.2,-2.2 5.8,-2.2 8,0 2.2,2.2 2.2,5.7 0.1,8 l -1.1,1.1 c -2.4,2.2 -5.9,2.2 -8.1,0 z m 7,-6.9 c -1,-1 -2.7,-1 -3.7,0 l -1.1,1.1 c -1,1 -1,2.7 0,3.7 1,1 2.7,1 3.8,0 l 1.1,-1.1 c 0.9,-1 0.9,-2.7 -0.1,-3.7 z M 1.7,30.3 c -2.2,-2.2 -2.2,-5.8 0,-8 l 1.1,-1.1 c 2.2,-2.2 5.8,-2.2 8,0 2.2,2.2 2.2,5.7 0.1,8 l -1.1,1.1 c -2.4,2.3 -5.9,2.2 -8.1,0 z m 7,-6.9 c -1,-1 -2.7,-1 -3.7,0 l -1.1,1.1 c -1,1 -1,2.7 0,3.7 1,1 2.7,1 3.8,0 l 1.1,-1.1 c 0.9,-1 0.9,-2.7 -0.1,-3.7 z" />
    <path
       style="fill:#42a5f5"
       inkscape:connector-curvature="0"
       id="path4140"
       d="M 6.5,25.5 C 5.9,24.9 5.9,24 6.5,23.4 l 6.9,-6.9 c 0.6,-0.6 1.5,-0.6 2.1,0 0.6,0.6 0.6,1.5 0,2.1 l -6.9,6.9 c -0.5,0.6 -1.5,0.6 -2.1,0 z" />
  </g>
</svg>
