<?xml version="1.0" encoding="UTF-8" standalone="no"?>
<svg
   xmlns:dc="http://purl.org/dc/elements/1.1/"
   xmlns:cc="http://creativecommons.org/ns#"
   xmlns:rdf="http://www.w3.org/1999/02/22-rdf-syntax-ns#"
   xmlns:svg="http://www.w3.org/2000/svg"
   xmlns="http://www.w3.org/2000/svg"
   xmlns:sodipodi="http://sodipodi.sourceforge.net/DTD/sodipodi-0.dtd"
   xmlns:inkscape="http://www.inkscape.org/namespaces/inkscape"
   version="1.0"
   id="Layer_1"
   x="0px"
   y="0px"
   viewBox="0 0 48 48"
   enable-background="new 0 0 48 48"
   xml:space="preserve"
   inkscape:version="0.91 r13725"
   sodipodi:docname="MindMap-7.svg"
   inkscape:export-filename="C:\Projects\DotNET\MindMap\MindMate\MindMate.Win7\View\Ribbon\Res\MindMap-2k.png"
   inkscape:export-xdpi="60"
   inkscape:export-ydpi="60"><metadata
     id="metadata3565"><rdf:RDF><cc:Work
         rdf:about=""><dc:format>image/svg+xml</dc:format><dc:type
           rdf:resource="http://purl.org/dc/dcmitype/StillImage" /><dc:title></dc:title></cc:Work></rdf:RDF></metadata><defs
     id="defs3563" /><sodipodi:namedview
     pagecolor="#ffffff"
     bordercolor="#666666"
     borderopacity="1"
     objecttolerance="10"
     gridtolerance="10"
     guidetolerance="10"
     inkscape:pageopacity="0"
     inkscape:pageshadow="2"
     inkscape:window-width="1536"
     inkscape:window-height="801"
     id="namedview3561"
     showgrid="false"
     inkscape:snap-bbox="true"
     inkscape:snap-object-midpoints="false"
     inkscape:zoom="13.166667"
     inkscape:cx="9.721519"
     inkscape:cy="24"
     inkscape:window-x="1528"
     inkscape:window-y="-8"
     inkscape:window-maximized="1"
     inkscape:current-layer="layer2" /><g
     inkscape:groupmode="layer"
     id="layer1"
     inkscape:label="Layer 1"
     style="display:none"><polygon
       points="39.4,23 38.6,19 26,21.6 26,8 22,8 22,20.3 8.1,11.3 5.9,14.7 21.1,24.5 9.4,39.8 12.6,42.2 23.9,27.4 32.3,40.1 35.7,37.9 27.3,25.4 "
       id="polygon3545"
       transform="translate(0.30683406,-0.55291234)"
       style="fill:#cfd8dc" /></g><g
     inkscape:groupmode="layer"
     id="layer3"
     inkscape:label="Layer 3"
     style="display:inline" /><g
     inkscape:groupmode="layer"
     id="layer4"
     inkscape:label="Layer 4"
     style="display:inline" /><g
     inkscape:groupmode="layer"
     id="layer2"
     inkscape:label="Circles"
     style="display:inline"><g
       id="g6616"><path
         inkscape:connector-curvature="0"
         id="path4255"
         d="M 15.189873,7.0632922 23.696202,23.088608"
         style="display:inline;fill:none;fill-rule:evenodd;stroke:#a2b3ba;stroke-width:2.811;stroke-linecap:butt;stroke-linejoin:miter;stroke-opacity:1;stroke-miterlimit:4;stroke-dasharray:none" /><path
         inkscape:connector-curvature="0"
         id="path4255-9"
         d="M 37.561571,9.8496257 25.020706,22.960503"
         style="display:inline;fill:none;fill-rule:evenodd;stroke:#a2b3ba;stroke-width:2.81100011;stroke-linecap:butt;stroke-linejoin:miter;stroke-miterlimit:4;stroke-dasharray:none;stroke-opacity:1" /><path
         inkscape:connector-curvature="0"
         id="path4255-9-2"
         d="M 42.625584,30.645884 25.728845,24.037663"
         style="display:inline;fill:none;fill-rule:evenodd;stroke:#a2b3ba;stroke-width:2.81100011;stroke-linecap:butt;stroke-linejoin:miter;stroke-miterlimit:4;stroke-dasharray:none;stroke-opacity:1" /><path
         inkscape:connector-curvature="0"
         id="path4255-9-2-3"
         d="M 20.900419,43.320779 23.30211,25.337448"
         style="display:inline;fill:none;fill-rule:evenodd;stroke:#a2b3ba;stroke-width:2.81100011;stroke-linecap:butt;stroke-linejoin:miter;stroke-miterlimit:4;stroke-dasharray:none;stroke-opacity:1" /><path
         inkscape:connector-curvature="0"
         id="path4255-9-2-8"
         d="M 23.439228,22.492799 6.1810253,28.08948"
         style="display:inline;fill:none;fill-rule:evenodd;stroke:#a2b3ba;stroke-width:2.81100011;stroke-linecap:butt;stroke-linejoin:miter;stroke-miterlimit:4;stroke-dasharray:none;stroke-opacity:1" /><path
         id="circle3547"
         d="m 30.299999,23.037001 a 6.5,6.5 0 0 1 -6.5,6.5 6.5,6.5 0 0 1 -6.5,-6.5 6.5,6.5 0 0 1 6.5,-6.5 6.5,6.5 0 0 1 6.5,6.5 z"
         style="fill:#3f51b5" /><path
         id="circle3557"
         d="m 11.21519,28.215187 a 5,5 0 0 1 -5.0000001,5 5,5 0 0 1 -5,-5 5,5 0 0 1 5,-5 5,5 0 0 1 5.0000001,5 z"
         style="fill:#4ad44a;fill-opacity:1" /><path
         id="circle3559"
         d="m 45.911392,30.569618 a 5,5 0 0 1 -5,5 5,5 0 0 1 -5,-5 5,5 0 0 1 5,-5 5,5 0 0 1 5,5 z"
         style="fill:#ffd42a" /><path
         id="circle3553"
         d="m 42.481014,9.8101263 a 5,5 0 0 1 -5,4.9999997 5,5 0 0 1 -5,-4.9999997 5,5 0 0 1 5,-5 5,5 0 0 1 5,5 z"
         style="fill:#ff7f2a" /><path
         id="circle3555"
         d="m 20.202531,7.4556961 a 5,5 0 0 1 -5,4.9999999 5,5 0 0 1 -5,-4.9999999 5,5 0 0 1 5,-5 5,5 0 0 1 5,5 z"
         style="fill:#00bcd4" /><path
         id="circle3559-7"
         d="m 26.037975,41.924049 a 5,5 0 0 1 -5,5 5,5 0 0 1 -5,-5 5,5 0 0 1 5,-5 5,5 0 0 1 5,5 z"
         style="display:inline;fill:#ff5555" /></g><rect
       style="fill:none;fill-opacity:0.98039216;stroke:none;stroke-width:1;stroke-linejoin:round;stroke-miterlimit:4;stroke-dasharray:none;stroke-opacity:0.98039216"
       id="rect6629"
       width="20.582279"
       height="29.468353"
       x="-25.594936"
       y="9.113925"
       ry="0" /><path
       style="fill:none;fill-rule:evenodd;stroke:#000000;stroke-width:1px;stroke-linecap:butt;stroke-linejoin:miter;stroke-opacity:1"
       d="m -25.974683,12.227849 0.151899,18.759493 14.202531,-3.493671 10e-7,-12.835442 z"
       id="path6636"
       inkscape:connector-curvature="0"
       sodipodi:nodetypes="ccccc" /></g></svg>