<?xml version="1.0" encoding="UTF-8" standalone="no"?>
<svg
   xmlns:dc="http://purl.org/dc/elements/1.1/"
   xmlns:cc="http://creativecommons.org/ns#"
   xmlns:rdf="http://www.w3.org/1999/02/22-rdf-syntax-ns#"
   xmlns:svg="http://www.w3.org/2000/svg"
   xmlns="http://www.w3.org/2000/svg"
   xmlns:sodipodi="http://sodipodi.sourceforge.net/DTD/sodipodi-0.dtd"
   xmlns:inkscape="http://www.inkscape.org/namespaces/inkscape"
   version="1.1"
   id="Слой_1"
   x="0px"
   y="0px"
   width="32"
   height="32"
   viewBox="0 0 32 32"
   enable-background="new 0 0 48 48"
   xml:space="preserve"
   inkscape:version="0.91 r13725"
   sodipodi:docname="sort-by-task.svg"
   inkscape:export-filename="C:\Projects\DotNET\MindMap\MindMate\MindMate.Win7\View\Ribbon\Res\sort-by-task.png"
   inkscape:export-xdpi="90"
   inkscape:export-ydpi="90"><metadata
     id="metadata8091"><rdf:RDF><cc:Work
         rdf:about=""><dc:format>image/svg+xml</dc:format><dc:type
           rdf:resource="http://purl.org/dc/dcmitype/StillImage" /><dc:title></dc:title></cc:Work></rdf:RDF></metadata><defs
     id="defs8089" /><sodipodi:namedview
     pagecolor="#ffffff"
     bordercolor="#666666"
     borderopacity="1"
     objecttolerance="10"
     gridtolerance="10"
     guidetolerance="10"
     inkscape:pageopacity="0"
     inkscape:pageshadow="2"
     inkscape:window-width="1536"
     inkscape:window-height="801"
     id="namedview8087"
     showgrid="false"
     inkscape:zoom="13.166667"
     inkscape:cx="8.5822789"
     inkscape:cy="22.860759"
     inkscape:window-x="1528"
     inkscape:window-y="-8"
     inkscape:window-maximized="1"
     inkscape:current-layer="Слой_1" /><g
     id="g17119"
     transform="matrix(0.71708861,0,0,0.71708861,-1.2101266,11.892625)"><g
       transform="translate(0,-16)"
       id="g8069"><rect
         style="fill:#3f51b5"
         id="rect8071"
         height="12"
         width="4"
         y="26"
         x="22" /><polygon
         style="fill:#3f51b5"
         id="polygon8073"
         points="31,34 17,34 24,41 " /></g><path
       style="fill:#90caf9"
       inkscape:connector-curvature="0"
       id="path8077"
       d="M 40,6 40,9 8,9.002 8,6 4,6 4,9 c 0,2.206 1.794,4 4,4 l 32,0 c 2.206,0 4,-1.794 4,-4 l 0,-3 -4,0 z" /><g
       transform="translate(-0.3037975,-15.164557)"
       id="g12610"><path
         style="fill:#ffffff"
         inkscape:connector-curvature="0"
         d="m 24,8 c -5.512,0 -10,5 -10,5 0,0 4.488,5 10,5 5.512,0 10,-5 10,-5 0,0 -4.488,-5 -10,-5 z"
         id="path8079" /><path
         style="fill:#ffffff"
         inkscape:connector-curvature="0"
         d="m 24,10 c 0,-0.552 0.448,-1 1,-1 0.552,0 1,0.448 1,1 0,0.552 -0.448,1 -1,1 -0.552,0 -1,-0.448 -1,-1"
         id="path8085" /><path
         inkscape:connector-curvature="0"
         style="fill:#cfd8dc"
         d="m 14.607595,19.620253 0,-12.0000001 20,0 0,12.0000001 c 0,1.1 -0.9,2 -2,2 l -16,0 c -1.1,0 -2,-0.9 -2,-2"
         id="path8095" /><path
         inkscape:connector-curvature="0"
         style="fill:#f44336"
         d="m 34.607595,5.6202529 0,3.0000001 -20,0 0,-3.0000001 c 0,-1.1 0.9,-2 2,-2 l 16,0 c 1.1,0 2,0.8 2,2"
         id="path8097" /><path
         inkscape:connector-curvature="0"
         style="fill:#b71c1c"
         d="m 21.607595,5.6202529 c 0,1.1 -0.9,2 -2,2 -1.1,0 -2,-0.9 -2,-2 0,-1.1 0.9,-2 2,-2 1.1,0 2,0.9 2,2 m 10,0 c 0,-1.1 -0.9,-2 -2,-2 -1.1,0 -2,0.9 -2,2 0,1.1 0.9,2 2,2 1.1,0 2,-0.9 2,-2"
         id="path8099" /><path
         inkscape:connector-curvature="0"
         style="fill:#b0bec5"
         d="m 20.607595,5.6202529 c 0,0.6 -0.4,1 -1,1 -0.6,0 -1,-0.4 -1,-1 l 0,-3 c 0,-0.6 0.4,-1 1,-1 0.6,0 1,0.4 1,1 l 0,3 z m 10,-3 c 0,-0.6 -0.4,-1 -1,-1 -0.6,0 -1,0.4 -1,1 l 0,3 c 0,0.6 0.4,1 1,1 0.6,0 1,-0.4 1,-1 l 0,-3 z"
         id="path8101" /><path
         inkscape:connector-curvature="0"
         style="fill:#90a4ae"
         d="m 19.607595,12.620253 -2,0 0,-2 2,0 0,2 z m 3,-2 -2,0 0,2 2,0 0,-2 z m 3,0 -2,0 0,2 2,0 0,-2 z m 3,0 -2,0 0,2 2,0 0,-2 z m 3,0 -2,0 0,2 2,0 0,-2 z m -12,3 -2,0 0,2 2,0 0,-2 z m 3,0 -2,0 0,2 2,0 0,-2 z m 3,0 -2,0 0,2 2,0 0,-2 z m 3,0 -2,0 0,2 2,0 0,-2 z m 3,0 -2,0 0,2 2,0 0,-2 z m -12,3 -2,0 0,2 2,0 0,-2 z m 3,0 -2,0 0,2 2,0 0,-2 z m 3,0 -2,0 0,2 2,0 0,-2 z m 3,0 -2,0 0,2 2,0 0,-2 z m 3,0 -2,0 0,2 2,0 0,-2 z"
         id="path8103" /></g></g></svg>