<svg version="1.1" id="Слой_1" xmlns="http://www.w3.org/2000/svg" xmlns:xlink="http://www.w3.org/1999/xlink" x="0px" y="0px" width="48px" height="48px" viewBox="0 0 48 48" enable-background="new 0 0 48 48" xml:space="preserve">
<g>
	<rect x="22" y="26" fill="#3F51B5" width="4" height="12"></rect>
	<polygon fill="#3F51B5" points="31,34 17,34 24,41 	"></polygon>
</g>
<path fill="#90A4AE" d="M24,6c-6.331,0-11.281,5.433-11.488,5.664L11.313,13l1.199,1.336C12.719,14.567,17.669,20,24,20
	s11.28-5.433,11.488-5.664L36.688,13l-1.199-1.336C35.28,11.433,30.331,6,24,6L24,6z"></path>
<path fill="#90CAF9" d="M40,22v3L8,25.002V22H4v3c0,2.206,1.794,4,4,4h32c2.206,0,4-1.794,4-4v-3H40z"></path>
<path fill="#FFFFFF" d="M24,8c-5.512,0-10,5-10,5s4.488,5,10,5s10-5,10-5S29.512,8,24,8z"></path>
<path fill="#009688" d="M24,8c-1.271,0-2.483,0.219-3.603,0.546C19.536,9.443,19,10.656,19,12c0,2.765,2.24,5,5,5s5-2.235,5-5
	c0-1.344-0.536-2.557-1.396-3.454C26.483,8.219,25.271,8,24,8z"></path>
<circle fill="#263238" cx="24" cy="12" r="2"></circle>
<path fill="#FFFFFF" d="M24,10c0-0.552,0.448-1,1-1s1,0.448,1,1s-0.448,1-1,1S24,10.552,24,10"></path>
</svg>