<?xml version="1.0" encoding="UTF-8" standalone="no"?>
<!-- Created with Inkscape (http://www.inkscape.org/) -->

<svg
   xmlns:dc="http://purl.org/dc/elements/1.1/"
   xmlns:cc="http://creativecommons.org/ns#"
   xmlns:rdf="http://www.w3.org/1999/02/22-rdf-syntax-ns#"
   xmlns:svg="http://www.w3.org/2000/svg"
   xmlns="http://www.w3.org/2000/svg"
   xmlns:sodipodi="http://sodipodi.sourceforge.net/DTD/sodipodi-0.dtd"
   xmlns:inkscape="http://www.inkscape.org/namespaces/inkscape"
   width="138.7825mm"
   height="137.01917mm"
   viewBox="0 0 491.74902 485.50098"
   id="svg9752"
   version="1.1"
   inkscape:version="0.91 r13725"
   inkscape:export-filename="C:\Projects\DotNET\MindMap\MindMate\MindMate.Win7\View\Ribbon\Res\ToggleExpandBranch-sua.png"
   inkscape:export-xdpi="5.9320168"
   inkscape:export-ydpi="5.9320168"
   sodipodi:docname="ToggleExpandBranch-SUA.svg">
  <defs
     id="defs9754" />
  <sodipodi:namedview
     id="base"
     pagecolor="#ffffff"
     bordercolor="#666666"
     borderopacity="1.0"
     inkscape:pageopacity="0.0"
     inkscape:pageshadow="2"
     inkscape:zoom="1"
     inkscape:cx="233.47573"
     inkscape:cy="250.69047"
     inkscape:document-units="px"
     inkscape:current-layer="layer3"
     showgrid="false"
     fit-margin-top="0"
     fit-margin-left="0"
     fit-margin-right="0"
     fit-margin-bottom="0"
     inkscape:window-width="1536"
     inkscape:window-height="801"
     inkscape:window-x="1528"
     inkscape:window-y="-8"
     inkscape:window-maximized="1" />
  <metadata
     id="metadata9757">
    <rdf:RDF>
      <cc:Work
         rdf:about="">
        <dc:format>image/svg+xml</dc:format>
        <dc:type
           rdf:resource="http://purl.org/dc/dcmitype/StillImage" />
        <dc:title></dc:title>
      </cc:Work>
    </rdf:RDF>
  </metadata>
  <g
     inkscape:groupmode="layer"
     id="layer3"
     inkscape:label="Layer 3">
    <path
       style="display:inline;fill:#7dacff;fill-opacity:1;stroke:#4170ff;stroke-width:7.50226307;stroke-linecap:butt;stroke-linejoin:miter;stroke-miterlimit:4;stroke-dasharray:none;stroke-opacity:1"
       d="M 178,42.251953 A 131.24886,131.24886 0 0 0 46.751953,173.50195 131.24886,131.24886 0 0 0 178,304.75 a 131.24886,131.24886 0 0 0 9.92578,-0.49609 131.24886,131.24886 0 0 1 3.50391,-18.4043 112.17762,112.17764 0 0 1 -11.62891,0.73047 A 112.17762,112.17764 0 0 1 67.623047,174.40039 112.17762,112.17764 0 0 1 179.80078,62.224609 112.17762,112.17764 0 0 1 291.97852,174.40039 a 112.17762,112.17764 0 0 1 -1.56641,17.85547 131.24886,131.24886 0 0 1 17.66211,-2.50781 131.24886,131.24886 0 0 0 1.17383,-16.2461 A 131.24886,131.24886 0 0 0 178,42.251953 Z"
       id="path11673" />
    <path
       style="display:inline;fill:#7dacff;fill-opacity:1;stroke:#4170ff;stroke-width:7.50226307;stroke-linecap:butt;stroke-linejoin:miter;stroke-miterlimit:4;stroke-dasharray:none;stroke-opacity:1"
       d="M 325.00001,189.25216 A 131.24886,131.24886 0 0 0 193.75119,320.50098 131.24886,131.24886 0 0 0 325.00001,451.7498 131.24886,131.24886 0 0 0 456.24881,320.50098 131.24886,131.24886 0 0 0 325.00001,189.25216 Z m 1.8,19.97227 A 112.17762,112.17764 0 0 1 438.97831,321.40099 112.17762,112.17764 0 0 1 326.80001,433.5793 112.17762,112.17764 0 0 1 214.62345,321.40099 112.17762,112.17764 0 0 1 326.80001,209.22443 Z"
       id="path11525-23-3-2"
       inkscape:connector-curvature="0" />
  </g>
  <g
     inkscape:label="Layer 1"
     inkscape:groupmode="layer"
     id="layer1"
     transform="translate(-112.00097,-95.61132)"
     style="display:inline">
    <path
       style="fill:#7dacff;fill-opacity:1;stroke:#4170ff;stroke-width:5.9630785;stroke-linecap:butt;stroke-linejoin:miter;stroke-miterlimit:4;stroke-dasharray:none;stroke-opacity:1"
       d="m 281.30289,189.55212 0,70.42275 -70.98839,0 0,16.70971 70.98839,0 0,70.98839 16.71082,0 0,-70.98839 70.42275,0 0,-16.70971 -70.42275,0 0,-70.42275 -16.71082,0 z"
       id="rect10397"
       inkscape:connector-curvature="0" />
  </g>
  <g
     inkscape:groupmode="layer"
     id="layer2"
     inkscape:label="Layer 2"
     style="display:inline">
    <rect
       style="display:inline;fill:#7dacff;fill-opacity:1;stroke:#416dff;stroke-width:5.32434702;stroke-linecap:butt;stroke-linejoin:miter;stroke-miterlimit:4;stroke-dasharray:none;stroke-opacity:1"
       id="rect10966"
       width="153.00191"
       height="20.557867"
       x="246.99469"
       y="313.90637" />
  </g>
</svg>
